# xmcd
#
# Track frame offsets: 
#        150
#        16814
#        35789
#        49607
#
# Disc length: 856 seconds
#
# Revision: 0
# Processed by: cddbd v1.5.2PL0 Copyright (c) Steve Scherf et al.
# Submitted via: ExactAudioCopy v0.99pb5
#
DISCID=29035604
DTITLE=The Blue Note Project - Demo
DYEAR=2008
DGENRE=Blues
TTITLE0=Going to Big Town
TTITLE1=My Lonely Heart
TTITLE2=Amrap
TTITLE3=Billy Hill
EXTD=
EXTT0=
EXTT1=
EXTT2=
EXTT3=
PLAYORDER=
